# xmcd CD database file
# Copyright (C) 1993-1996 Ti Kan
#
# Track frame offsets:
#  150
#  19467
#  34217
#  51797
#  66463
#  83539
#  102478
#  117733
#  132412
#  151131
#  168901
#  183617
#  199685
#  215615
#  233994
#  248675
#  270054
#
# Disc length: 4020 seconds
#
# Revision: 2
# Processed by: cddbd v1.5.1PL0 Copyright (c) Steve Scherf et al.
# Submitted via: Advanced CD Ripper Pro 2.0
#
DISCID=f10fb211
DTITLE=Varios - Nuestro Rock Vol. 2
DYEAR=2002
DGENRE=Rock en Español
TTITLE0=Luz - No aguanto mas
TTITLE1=Hombres G - Devuelveme a mi chica
TTITLE2=La Union - Lobo hombre en Paris
TTITLE3=Objetivo Birmania - Baila para mi
TTITLE4=Miguel Rios - Santa Lucia
TTITLE5=Montana - Quisiera que estuvieras aqui
TTITLE6=Ritmo Peligroso - Marielito
TTITLE7=Ricky Luis - Tengo un mes con el mismo pantalon
TTITLE8=Soda Stereo - Cancion animal
TTITLE9=Mikel Erentxun - A un minuto de ti
TTITLE10=La Ley - El duelo
TTITLE11=Cafe Tacuba - Ingrata
TTITLE12=Los Tres - Dejate caer
TTITLE13=Botellita de Jerez - Alarmala de tos
TTITLE14=La Catrina - Cucarachas
TTITLE15=Moneda Dura - Lola
TTITLE16=El Tri - Pista 17
EXTD=
EXTT0=
EXTT1=
EXTT2=
EXTT3=
EXTT4=
EXTT5=
EXTT6=
EXTT7=
EXTT8=
EXTT9=
EXTT10=
EXTT11=
EXTT12=
EXTT13=
EXTT14=
EXTT15=
EXTT16=
PLAYORDER=
